<?xml version="1.0" standalone="no"?>
<!DOCTYPE svg PUBLIC "-//W3C//DTD SVG 20010904//EN"
 "http://www.w3.org/TR/2001/REC-SVG-20010904/DTD/svg10.dtd">
<svg version="1.0" xmlns="http://www.w3.org/2000/svg"
 width="404.000000pt" height="100.000000pt" viewBox="0 0 2412.000000 596.000000"
 preserveAspectRatio="xMidYMid meet">

<g transform="translate(0.000000,596.000000) scale(0.100000,-0.100000)"
fill="#000000" stroke="none">
<path d="M1695 5951 c3 -5 25 -17 50 -26 59 -23 149 -17 196 13 l34 22 -143 0
c-85 0 -141 -4 -137 -9z"/>
<path d="M12040 3808 c-382 -28 -720 -259 -881 -603 -64 -136 -84 -234 -84
-415 0 -185 20 -281 89 -426 56 -117 105 -191 181 -273 277 -297 721 -405
1140 -277 144 44 269 101 368 168 l57 39 0 369 0 370 -145 0 -145 0 -2 -287
-3 -287 -40 -23 c-22 -13 -76 -37 -120 -54 -222 -86 -432 -81 -629 15 -191 93
-333 267 -387 473 -24 93 -29 258 -10 348 55 259 244 468 499 553 69 23 93 26
222 26 128 -1 155 -4 233 -27 110 -34 186 -72 272 -137 36 -27 70 -50 75 -50
9 0 176 197 182 215 5 16 -106 98 -200 148 -89 47 -236 100 -327 118 -85 17
-235 24 -345 17z"/>
<path d="M22397 3810 c-273 -46 -477 -205 -533 -414 -17 -62 -18 -196 -3 -268
16 -78 64 -160 128 -221 98 -94 213 -150 468 -227 256 -77 356 -123 420 -192
73 -78 73 -238 0 -317 -66 -71 -161 -101 -322 -101 -215 0 -416 79 -619 242
-33 26 -61 46 -62 45 -1 -1 -34 -63 -73 -137 l-72 -135 38 -33 c98 -84 250
-169 393 -220 145 -51 237 -65 410 -65 132 1 169 5 251 26 324 85 503 300 486
587 -16 281 -161 416 -597 555 -219 71 -293 99 -350 135 -93 60 -130 120 -130
215 0 97 39 154 135 196 38 17 75 24 159 27 174 7 330 -29 509 -119 54 -27
102 -49 108 -49 5 0 39 62 75 137 76 160 84 138 -71 213 -119 57 -235 94 -365
115 -100 16 -301 18 -383 5z"/>
<path d="M657 3793 c-4 -3 -7 -69 -7 -145 l0 -138 315 0 315 0 0 -865 0 -865
170 0 170 0 2 863 3 862 318 3 318 2 -3 143 -3 142 -796 3 c-437 1 -799 -1
-802 -5z"/>
<path d="M4487 3794 c-4 -4 -7 -459 -7 -1011 l0 -1003 605 0 605 0 0 145 0
145 -435 0 -435 0 -2 863 -3 862 -161 3 c-88 1 -163 -1 -167 -4z"/>
<path d="M6027 3794 c-4 -4 -7 -459 -7 -1011 l0 -1003 168 2 167 3 3 261 2
261 166 182 c91 99 169 181 174 181 4 0 155 -200 335 -445 l328 -445 198 0
c110 0 199 3 199 6 0 8 -87 130 -504 704 -174 239 -315 440 -315 445 0 6 172
199 383 430 211 231 382 423 379 428 -2 4 -89 7 -192 7 l-188 0 -473 -532
c-260 -293 -477 -534 -481 -536 -5 -2 -10 236 -11 530 l-3 533 -161 3 c-88 1
-163 -1 -167 -4z"/>
<path d="M8090 2790 l0 -1010 165 0 165 0 0 1010 0 1010 -165 0 -165 0 0
-1010z"/>
<path d="M8962 3792 c-10 -7 -12 -215 -10 -1008 l3 -999 168 -3 167 -2 0 731
c0 463 4 729 10 727 5 -1 90 -113 188 -248 493 -677 781 -1072 829 -1137 l54
-73 164 0 165 0 -2 1008 -3 1007 -162 3 -163 2 -2 -740 -3 -741 -184 253
c-102 139 -270 370 -375 513 -104 143 -261 359 -350 480 -88 121 -165 223
-171 227 -14 10 -307 10 -323 0z"/>
<path d="M13397 3794 c-4 -4 -7 -459 -7 -1011 l0 -1003 170 0 170 0 0 419 0
419 23 6 c29 8 1011 8 1031 0 14 -5 16 -52 16 -425 l0 -419 170 0 170 0 -2
1008 -3 1007 -165 0 -165 0 -3 -443 -2 -442 -533 2 -532 3 -5 440 -5 440 -161
3 c-88 1 -163 -1 -167 -4z"/>
<path d="M15677 3793 c-4 -3 -7 -458 -7 -1010 l0 -1003 738 2 737 3 0 140 0
140 -567 3 -568 2 0 290 0 290 493 2 492 3 0 140 0 140 -493 3 -492 2 2 283 3
282 548 3 547 2 0 145 0 145 -713 0 c-393 0 -717 -3 -720 -7z"/>
<path d="M19698 3794 c-5 -4 -8 -459 -8 -1011 l0 -1003 459 0 c496 0 548 4
713 56 171 54 300 135 425 268 179 190 263 409 263 683 0 296 -101 539 -303
729 -145 137 -340 231 -547 264 -85 14 -990 27 -1002 14z m997 -308 c315 -91
514 -361 515 -698 0 -126 -22 -227 -74 -332 -89 -181 -218 -293 -411 -358 -67
-22 -82 -23 -383 -23 l-312 0 0 708 c0 389 0 712 0 718 0 8 89 9 303 6 247 -3
313 -7 362 -21z"/>
<path d="M2959 3743 c-11 -27 -87 -199 -169 -383 -134 -303 -404 -914 -611
-1384 -43 -98 -79 -182 -79 -187 0 -5 78 -9 173 -9 l173 0 36 88 c20 48 64
153 98 235 l62 147 506 -2 506 -3 96 -230 97 -230 181 -3 182 -2 -9 22 c-5 13
-52 122 -106 243 -152 346 -267 609 -523 1195 l-238 545 -177 3 -178 2 -20
-47z m384 -758 l185 -440 -375 -3 c-207 -1 -378 0 -381 3 -5 5 12 48 208 515
70 168 135 323 144 344 10 24 20 36 26 30 5 -5 92 -207 193 -449z"/>
<path d="M18083 3557 c-56 -127 -190 -432 -299 -677 -255 -578 -453 -1027
-470 -1068 l-14 -32 176 2 177 3 97 230 97 230 505 3 506 2 75 -177 c41 -98
86 -204 99 -235 l23 -58 178 0 c97 0 177 4 177 9 0 4 -42 104 -94 222 -52 118
-243 554 -424 969 -182 415 -336 767 -343 783 l-12 27 -176 0 -176 0 -102
-233z m464 -565 c102 -243 184 -445 181 -447 -3 -3 -174 -4 -381 -3 l-376 3
155 370 c86 204 169 405 186 448 17 43 35 76 40 75 5 -2 93 -203 195 -446z"/>
</g>
</svg>
