<?xml version="1.0" standalone="no"?>
<!DOCTYPE svg PUBLIC "-//W3C//DTD SVG 20010904//EN"
 "http://www.w3.org/TR/2001/REC-SVG-20010904/DTD/svg10.dtd">
<svg version="1.0" xmlns="http://www.w3.org/2000/svg"
 width="1005.000000pt" height="248.000000pt" viewBox="0 0 1005.000000 248.000000"
 preserveAspectRatio="xMidYMid meet">

<g transform="translate(0.000000,248.000000) scale(0.100000,-0.100000)"
fill="#000000" stroke="none">
<path d="M737 2468 c15 -7 30 -7 50 0 26 10 24 10 -22 11 -42 0 -46 -2 -28
-11z"/>
<path d="M9305 1576 c-69 -17 -105 -38 -148 -85 -40 -45 -52 -86 -45 -167 8
-96 71 -152 228 -201 123 -38 183 -68 203 -102 50 -84 -17 -161 -141 -161 -78
0 -146 21 -221 70 -34 22 -64 40 -66 40 -3 0 -17 -23 -31 -52 l-26 -52 28 -23
c35 -28 135 -77 189 -92 67 -18 207 -14 267 9 137 51 202 179 152 298 -33 80
-90 117 -264 172 -128 41 -170 75 -170 138 0 33 6 45 31 66 27 23 40 26 102
26 80 0 129 -11 199 -45 35 -17 50 -20 57 -11 11 14 41 85 41 98 0 16 -122 65
-191 77 -81 14 -129 13 -194 -3z"/>
<path d="M270 1520 l0 -60 135 0 135 0 0 -360 0 -360 65 0 65 0 0 360 0 360
135 0 135 0 0 60 0 60 -335 0 -335 0 0 -60z"/>
<path d="M1215 1513 c-16 -38 -41 -95 -56 -128 -15 -33 -53 -118 -84 -190 -31
-71 -65 -148 -75 -170 -76 -172 -120 -273 -120 -278 0 -4 31 -7 68 -7 l68 0
40 98 41 97 213 0 214 0 35 -85 c20 -47 40 -91 44 -97 5 -9 33 -13 77 -13 62
0 69 2 63 18 -3 9 -32 76 -63 147 -57 128 -95 217 -221 505 -34 80 -67 151
-72 158 -6 7 -34 12 -76 12 l-67 0 -29 -67z m179 -266 c42 -100 76 -186 76
-190 0 -4 -72 -7 -161 -7 -159 0 -160 0 -154 21 16 50 150 359 156 359 3 0 41
-82 83 -183z"/>
<path d="M1870 1160 l0 -420 250 0 250 0 0 60 0 60 -180 0 -180 0 -2 358 -3
357 -67 3 -68 3 0 -421z"/>
<path d="M2510 1160 l0 -420 70 0 70 0 0 111 0 111 66 74 c37 41 70 74 74 74
5 0 61 -71 124 -157 177 -241 148 -215 240 -211 l78 3 -99 135 c-54 74 -132
181 -172 238 l-73 102 45 53 c25 28 97 108 160 177 l114 125 -75 3 c-88 3 -58
26 -252 -193 -63 -71 -132 -149 -154 -172 -21 -23 -46 -53 -55 -65 -15 -22
-16 -9 -21 202 l-5 225 -67 3 -68 3 0 -421z"/>
<path d="M3370 1160 l0 -420 70 0 70 0 0 420 0 420 -70 0 -70 0 0 -420z"/>
<path d="M3737 1573 c-4 -3 -7 -192 -7 -420 l0 -413 70 0 70 0 2 306 3 307 66
-89 c37 -49 109 -147 161 -219 51 -71 123 -169 158 -217 l64 -88 68 0 68 0 0
420 0 420 -70 0 -70 0 -2 -307 -3 -308 -79 110 c-44 61 -116 160 -161 220 -45
61 -110 149 -145 198 l-65 87 -61 0 c-33 0 -64 -3 -67 -7z"/>
<path d="M4915 1562 c-119 -41 -205 -116 -258 -222 -30 -62 -32 -70 -32 -180
0 -110 2 -119 32 -181 54 -109 150 -189 272 -228 48 -15 207 -13 261 3 55 17
149 60 173 79 15 12 17 33 17 166 l0 151 -60 0 -60 0 0 -119 c0 -135 2 -132
-94 -164 -117 -40 -249 -6 -329 82 -57 63 -79 122 -79 212 -1 91 21 146 80
211 65 71 120 93 227 93 96 0 164 -21 213 -68 l23 -21 38 44 c45 52 43 60 -37
103 -105 57 -283 75 -387 39z"/>
<path d="M5587 1573 c-4 -3 -7 -192 -7 -420 l0 -413 70 0 70 0 0 175 0 175
215 0 c118 0 218 0 223 0 4 0 8 -79 10 -175 l2 -175 70 0 70 0 0 420 0 420
-70 0 -70 0 0 -185 0 -185 -225 0 -225 0 0 185 0 185 -63 0 c-35 0 -67 -3 -70
-7z"/>
<path d="M6530 1160 l0 -420 305 0 305 0 0 60 0 60 -235 0 -235 0 0 125 0 125
205 0 205 0 0 55 0 55 -205 0 -205 0 0 120 0 120 230 0 230 0 0 60 0 60 -300
0 -300 0 0 -420z"/>
<path d="M7571 1558 c-5 -13 -27 -63 -49 -113 -22 -49 -75 -169 -117 -265 -42
-96 -85 -193 -95 -215 -10 -22 -37 -80 -59 -130 l-40 -90 61 -3 c33 -2 66 -1
73 2 7 2 30 47 51 100 l39 96 213 -2 213 -3 41 -97 41 -98 68 0 c40 0 69 4 69
10 0 6 -25 68 -56 138 -90 204 -148 336 -227 517 l-74 170 -72 3 c-66 3 -72 1
-80 -20z m89 -137 c0 -5 34 -88 75 -186 41 -97 75 -178 75 -181 0 -2 -72 -4
-160 -4 -88 0 -160 4 -160 9 0 5 30 80 66 167 36 88 70 169 75 182 8 21 29 31
29 13z"/>
<path d="M8210 1161 l0 -421 183 0 c118 0 205 5 248 14 177 38 301 163 331
334 29 171 -47 342 -190 425 -94 54 -120 59 -354 64 l-218 5 0 -421z m457 275
c63 -30 113 -79 145 -143 33 -69 33 -197 -1 -267 -32 -64 -83 -113 -148 -142
-48 -21 -68 -24 -188 -24 l-135 0 0 300 0 300 138 0 c124 0 142 -3 189 -24z"/>
</g>
</svg>
